# xmcd CD database file
#
# Track frame offsets:
#	160
#	21097
#	36812
#	60765
#	74580
#	97405
#	101727
#	129820
#	141765
#	167510
#	180745
#	200532
#	221495
#
# Disc length: 3116 seconds
#
# Revision: 0
# Processed by: cddbd v1.4PL0 Copyright (c) Steve Scherf et al.
# Submitted via: CDex 1.50Beta7
#
DISCID=b70c2a0d
DTITLE=Palinckx - Momentum and Wag
DYEAR=2002
DGENRE=Blues
TTITLE0=Hell Is Cool
TTITLE1=Das Modell
TTITLE2=Momentum and Wag
TTITLE3=Make Up While Try
TTITLE4=Normal ( I'm Loosing You)
TTITLE5=Logo
TTITLE6=(The-walk-on-daily) Smooth Simularity
TTITLE7=Lip Dance
TTITLE8=Don't Be Late
TTITLE9=Trottinette
TTITLE10=Dream 13 Revisited
TTITLE11=Dancin' in the Dump
TTITLE12=La-Scia-Te
EXTD=YEAR: 2002
EXTT0=
EXTT1=
EXTT2=
EXTT3=
EXTT4=
EXTT5=
EXTT6=
EXTT7=
EXTT8=
EXTT9=
EXTT10=
EXTT11=
EXTT12=
PLAYORDER=
